<?xml version="1.0" standalone="no"?>
<!DOCTYPE svg PUBLIC "-//W3C//DTD SVG 20010904//EN"
 "http://www.w3.org/TR/2001/REC-SVG-20010904/DTD/svg10.dtd">
<svg version="1.0" xmlns="http://www.w3.org/2000/svg"
 width="200.000000pt" height="200.000000pt" viewBox="0 0 200.000000 200.000000"
 preserveAspectRatio="xMidYMid meet">
<metadata>
Created by potrace 1.14, written by Peter Selinger 2001-2017
</metadata>
<g transform="translate(0.000000,200.000000) scale(0.100000,-0.100000)"
fill="#000000" stroke="none">
<path d="M0 1000 l0 -1000 1000 0 1000 0 0 1000 0 1000 -1000 0 -1000 0 0
-1000z m1133 643 c168 -79 271 -272 239 -446 -21 -111 -81 -208 -172 -279
l-35 -28 108 0 c121 0 157 -12 182 -60 17 -34 20 -76 5 -85 -14 -9 -40 13 -40
33 0 9 -10 26 -22 39 -21 23 -24 23 -257 23 -130 0 -256 5 -280 11 -211 48
-360 270 -322 477 30 161 139 287 296 339 25 8 76 12 135 10 83 -2 104 -7 163
-34z m-291 -1180 c2 -60 8 -115 12 -124 6 -14 -2 -17 -62 -17 -89 -1 -107 15
-103 96 2 34 36 62 76 62 30 0 35 3 35 23 0 12 -4 29 -10 37 -10 16 4 30 32
30 14 0 17 -15 20 -107z m422 91 c3 -9 6 -31 6 -49 0 -33 1 -34 35 -28 47 8
61 -7 70 -74 4 -31 9 -62 12 -70 4 -9 -5 -13 -29 -13 l-34 0 4 61 c5 66 -4 85
-38 74 -19 -6 -21 -13 -19 -68 l3 -62 -30 -3 -30 -3 4 106 c3 68 0 110 -7 119
-6 7 -8 16 -4 19 12 13 51 7 57 -9z m428 -39 c3 -40 3 -40 40 -37 48 4 78 -24
78 -73 0 -56 -35 -85 -105 -85 l-55 0 0 109 c0 77 -4 112 -12 117 -9 6 -5 10
12 15 33 8 38 2 42 -46z m-732 25 c0 -21 -33 -29 -45 -10 -9 15 4 30 26 30 12
0 19 -7 19 -20z m-511 -93 c6 -16 11 -45 11 -63 0 -18 5 -36 10 -39 18 -11 0
-25 -31 -25 l-29 0 0 65 c0 50 -4 67 -16 72 -8 3 -20 1 -27 -6 -13 -13 -15
-76 -4 -108 8 -21 5 -23 -25 -23 l-34 0 4 58 c3 45 0 61 -12 71 -13 11 -19 11
-32 0 -12 -9 -15 -27 -12 -68 3 -47 0 -56 -15 -59 -36 -7 -47 4 -34 37 8 22 8
42 1 71 -6 22 -9 41 -7 43 2 3 57 4 123 5 l119 0 10 -31z m186 17 c9 -9 15
-26 13 -38 -2 -17 -11 -22 -50 -24 -40 -3 -48 -7 -48 -22 0 -26 34 -43 73 -35
30 6 31 5 13 -10 -11 -8 -36 -15 -56 -15 -48 0 -75 29 -75 80 0 52 27 80 76
80 21 0 45 -7 54 -16z m325 -48 c0 -36 5 -68 10 -71 22 -13 8 -25 -30 -25 -38
0 -52 12 -30 25 6 3 10 28 10 55 0 27 -4 52 -10 55 -20 12 -9 25 20 25 l30 0
0 -64z m178 52 c5 -7 12 -37 14 -67 3 -29 11 -57 18 -61 20 -12 0 -17 -70 -18
-66 0 -90 9 -90 34 0 23 38 54 65 54 29 0 44 25 26 43 -9 9 -16 9 -31 -1 -23
-14 -50 -16 -50 -2 0 27 98 42 118 18z m344 -49 c2 -45 8 -65 20 -73 13 -8 21
-7 29 1 13 13 16 76 5 111 -7 19 -4 22 23 22 31 0 31 0 31 -57 0 -32 3 -68 6
-79 5 -20 2 -22 -63 -22 -37 0 -74 5 -80 10 -8 6 -13 33 -13 64 0 29 -4 56
-10 59 -20 12 -10 25 20 25 29 0 29 -1 32 -61z"/>
<path d="M882 1555 c-60 -51 -66 -128 -14 -178 54 -52 124 -52 175 -1 51 50
47 124 -9 174 -46 40 -108 42 -152 5z"/>
<path d="M726 1379 c-90 -26 -120 -144 -52 -208 33 -31 100 -39 141 -17 126
68 49 266 -89 225z"/>
<path d="M1120 1379 c-94 -20 -120 -142 -43 -209 33 -29 41 -32 85 -28 32 4
57 13 73 28 93 88 12 236 -115 209z"/>
<path d="M920 1285 c-21 -25 3 -67 37 -63 34 4 52 31 37 56 -15 23 -57 27 -74
7z"/>
<path d="M903 1175 c-89 -38 -95 -164 -10 -215 59 -36 130 -18 167 43 38 62
12 145 -55 173 -42 17 -61 17 -102 -1z"/>
<path d="M736 445 c-11 -30 -6 -82 9 -95 8 -6 22 -10 32 -8 15 3 18 13 18 58
0 52 -1 55 -26 58 -17 2 -29 -3 -33 -13z"/>
<path d="M1696 444 c-13 -34 -6 -93 12 -103 30 -16 52 5 52 49 0 53 -8 70 -35
70 -13 0 -26 -7 -29 -16z"/>
<path d="M560 455 c-16 -19 -5 -49 16 -41 9 3 20 6 25 6 16 0 10 38 -7 44 -21
8 -20 8 -34 -9z"/>
<path d="M1066 385 c-20 -21 -9 -47 18 -43 15 2 22 11 24 31 4 31 -17 37 -42
12z"/>
</g>
</svg>
